<?xml version="1.0" encoding="iso-8859-1"?>
<!-- Generator: Adobe Illustrator 19.0.0, SVG Export Plug-In . SVG Version: 6.00 Build 0)  -->
<svg version="1.1" id="Capa_1" xmlns="http://www.w3.org/2000/svg" xmlns:xlink="http://www.w3.org/1999/xlink" x="0px" y="0px"
	 viewBox="0 0 512.002 512.002" style="enable-background:new 0 0 512.002 512.002;" xml:space="preserve">
<g>
	<g>
		<path d="M210.836,343.965l-35.602-15.973v-71.771c0-16.218-13.195-29.412-29.412-29.412c-0.134,0-0.646,0.015-1.016,0.026
			l-0.001-0.008c-2.935,0.1-5.753,0.621-8.397,1.503V197.69c0-16.218-13.195-29.412-29.412-29.412c-0.134,0-0.646,0.015-1.016,0.026
			v-0.008c-2.935,0.1-5.753,0.621-8.397,1.503v-0.934c0-16.218-13.195-29.412-29.412-29.412c-0.156,0-1.013,0.018-1.016,0.018
			c-11.371,0.388-20.982,7.085-25.548,16.686c-3.323-1.546-6.985-2.481-10.853-2.663c-8.334-0.401-16.839,2.724-22.721,8.336
			c-5.027,4.796-7.795,11.05-7.795,17.609c0,23.163-0.144,78.286-0.229,109.081c-0.052,18.683,4.779,37.16,13.972,53.433
			l30.406,53.825c7.161,12.676,18.377,22.952,31.623,28.985l37.972,21.681v55.556c0,5.523,4.477,10,10,10h106.768
			c5.523,0,10-4.477,10-10V388.978C240.749,369.254,229.012,351.6,210.836,343.965z M136.409,256.221
			c0-5.087,3.968-9.211,9.04-9.405l0.373-0.008c5.19,0,9.413,4.223,9.413,9.413v62.798l-18.826-8.446V256.221z M97.583,197.689
			c0.001-5.087,3.968-9.21,9.04-9.405l0.373-0.008c5.19,0,9.413,4.223,9.413,9.413v94.827l-18.825-19.023V197.689z M58.759,168.866
			c0-5.076,3.949-9.192,9.033-9.405l0.38-0.008c5.19,0,9.413,4.223,9.413,9.413v90.158c-6.141-1.748-12.718-1.582-18.825,0.549
			V168.866z M220.749,492.001h-86.768V440.64c0-3.59-1.924-6.904-5.042-8.684L85.513,407.16c-0.287-0.164-0.581-0.313-0.883-0.448
			c-9.569-4.271-17.677-11.647-22.831-20.771l-30.405-53.825c-7.491-13.261-11.428-28.316-11.386-43.541
			c0.085-30.806,0.229-85.948,0.229-109.137c0-1.068,0.539-2.124,1.602-3.139c1.944-1.855,5.071-2.959,7.976-2.829
			c4.932,0.232,8.945,4.696,8.945,9.951v97.465c-0.319,1.158-0.574,2.34-0.761,3.542c-1.518,9.737,1.673,19.734,8.542,26.78
			l40.582,43.682c3.758,4.046,10.087,4.279,14.132,0.52c4.046-3.759,4.279-10.086,0.52-14.132l-40.671-43.779
			c-0.066-0.071-3.907-6.375-3.344-9.99c0.361-2.312,1.406-4.421,3.018-6.103c0.305-0.278,0.915-0.83,1.236-1.12
			c4.568-3.582,11.04-3.171,15.157,1.008l91.353,92.314c1.956,1.976,4.531,2.966,7.108,2.966c2.542,0,5.085-0.963,7.034-2.892
			c3.925-3.885,3.958-10.216,0.074-14.142l-11.149-11.266l31.174,13.987c0.082,0.037,0.165,0.072,0.248,0.107
			c10.775,4.489,17.737,14.934,17.737,26.607V492.001z"/>
	</g>
</g>
<g>
	<g>
		<path d="M125.214,366.525c-0.46-0.47-0.97-0.88-1.52-1.25c-0.54-0.36-1.13-0.67-1.73-0.92s-1.23-0.44-1.87-0.57
			c-1.29-0.26-2.62-0.26-3.91,0c-0.63,0.13-1.26,0.32-1.87,0.57c-0.6,0.25-1.18,0.56-1.72,0.92c-0.55,0.37-1.06,0.78-1.52,1.25
			c-0.46,0.46-0.88,0.97-1.25,1.52c-0.36,0.54-0.67,1.12-0.92,1.72c-0.25,0.61-0.44,1.24-0.57,1.87
			c-0.131,0.65-0.191,1.31-0.191,1.96c0,0.65,0.061,1.31,0.191,1.95c0.13,0.64,0.32,1.27,0.57,1.87c0.25,0.61,0.56,1.19,0.92,1.73
			c0.37,0.55,0.79,1.06,1.25,1.52c0.46,0.46,0.97,0.88,1.52,1.24c0.54,0.36,1.12,0.67,1.72,0.92c0.61,0.25,1.24,0.44,1.87,0.57
			c0.651,0.13,1.31,0.2,1.96,0.2c0.651,0,1.31-0.07,1.95-0.2c0.64-0.13,1.27-0.32,1.87-0.57s1.19-0.56,1.73-0.92
			c0.55-0.36,1.06-0.78,1.52-1.24c0.46-0.46,0.88-0.97,1.24-1.52c0.36-0.54,0.67-1.12,0.92-1.73c0.25-0.6,0.44-1.23,0.57-1.87
			c0.13-0.64,0.2-1.3,0.2-1.95C128.144,370.965,127.074,368.385,125.214,366.525z"/>
	</g>
</g>
<g>
	<g>
		<path d="M511.764,179.438c0-6.559-2.768-12.813-7.795-17.609c-5.882-5.612-14.378-8.734-22.721-8.336
			c-3.868,0.182-7.53,1.117-10.852,2.663c-4.564-9.601-14.17-16.298-25.52-16.685c-0.021-0.001-0.888-0.018-1.045-0.018
			c-16.217,0-29.412,13.194-29.412,29.412v0.934c-2.644-0.882-5.462-1.403-8.397-1.503l-0.001,0.008
			c-0.369-0.012-0.882-0.026-1.016-0.026c-16.217,0-29.412,13.195-29.412,29.412v30.641c-2.644-0.882-5.462-1.403-8.397-1.503v0.008
			c-0.369-0.012-0.882-0.026-1.016-0.026c-16.218,0-29.412,13.195-29.412,29.412v71.771l-35.602,15.973
			c-18.176,7.635-29.913,25.288-29.913,45.013v113.023c0,5.523,4.477,10,10,10h106.769c5.523,0,10-4.477,10-10v-55.556
			l37.972-21.681c13.247-6.034,24.463-16.31,31.624-28.985l30.405-53.825c9.192-16.273,14.024-34.749,13.972-53.433
			C511.908,257.724,511.764,202.602,511.764,179.438z M434.417,168.866c0-5.19,4.223-9.413,9.346-9.413l0.46,0.009
			c5.063,0.204,9.02,4.323,9.02,9.404v90.703c-6.106-2.131-12.685-2.297-18.825-0.549V168.866z M404.937,188.276l0.446,0.008
			c5.07,0.196,9.035,4.319,9.035,9.405v75.804l-18.825,19.023V197.69h0C395.592,192.5,399.815,188.277,404.937,188.276z
			 M366.112,246.807l0.445,0.008c5.07,0.196,9.036,4.319,9.036,9.405v54.352l-18.825,8.446v-62.797h0
			C356.767,251.03,360.99,246.808,366.112,246.807z M480.608,332.116l-30.405,53.825c-5.154,9.124-13.263,16.501-22.831,20.771
			c-0.301,0.135-0.596,0.284-0.883,0.448l-43.426,24.796c-3.117,1.78-5.042,5.094-5.042,8.684v51.362h-86.768V388.978
			c0-11.674,6.963-22.118,17.737-26.607c0.083-0.035,0.165-0.07,0.248-0.107l31.174-13.987l-11.149,11.266
			c-3.885,3.926-3.852,10.257,0.074,14.142c1.95,1.929,4.492,2.892,7.034,2.892c2.577,0,5.153-0.99,7.108-2.966l87.997-88.923
			c0.014-0.014,3.372-3.408,3.372-3.408c4.104-4.167,10.584-4.575,15.135-0.996c0.319,0.288,0.932,0.843,1.239,1.122
			c1.617,1.689,2.66,3.796,3.021,6.105c0.564,3.615-3.278,9.919-3.344,9.99l-40.671,43.779c-3.759,4.046-3.526,10.374,0.52,14.132
			c4.046,3.759,10.374,3.526,14.132-0.52l40.581-43.682c6.868-7.046,10.06-17.043,8.542-26.78c-0.187-1.202-0.442-2.384-0.761-3.542
			v-97.465c0-5.255,4.013-9.719,8.944-9.951c2.909-0.127,6.033,0.975,7.977,2.829c1.063,1.014,1.602,2.07,1.602,3.139
			c0,23.187,0.144,78.331,0.229,109.137C492.036,303.8,488.099,318.855,480.608,332.116z"/>
	</g>
</g>
<g>
	<g>
		<path d="M403.666,371.635c-0.13-0.64-0.32-1.26-0.57-1.87c-0.25-0.6-0.56-1.18-0.92-1.72c-0.37-0.55-0.79-1.06-1.25-1.53
			c-0.46-0.46-0.97-0.87-1.52-1.24c-0.54-0.36-1.12-0.67-1.72-0.92c-0.61-0.25-1.23-0.44-1.87-0.57c-1.29-0.26-2.62-0.26-3.91,0
			c-0.64,0.13-1.27,0.32-1.87,0.57c-0.6,0.25-1.191,0.56-1.73,0.92c-0.54,0.37-1.06,0.78-1.52,1.24c-0.46,0.47-0.88,0.98-1.24,1.53
			c-0.36,0.54-0.67,1.12-0.92,1.72c-0.25,0.61-0.44,1.23-0.57,1.87c-0.13,0.65-0.2,1.31-0.2,1.96c0,0.65,0.07,1.31,0.2,1.95
			c0.13,0.64,0.32,1.27,0.57,1.87c0.25,0.6,0.56,1.19,0.92,1.73c0.36,0.55,0.78,1.06,1.24,1.52s0.98,0.88,1.52,1.24
			s1.13,0.67,1.73,0.92c0.6,0.25,1.23,0.44,1.87,0.57c0.64,0.13,1.3,0.2,1.95,0.2c0.661,0,1.31-0.07,1.96-0.2
			c0.64-0.13,1.26-0.32,1.87-0.57c0.6-0.25,1.18-0.56,1.72-0.92c0.55-0.36,1.06-0.78,1.52-1.24s0.88-0.97,1.25-1.52
			c0.36-0.54,0.67-1.13,0.92-1.73c0.25-0.6,0.44-1.23,0.57-1.87c0.13-0.64,0.19-1.3,0.19-1.95
			C403.856,372.944,403.796,372.285,403.666,371.635z"/>
	</g>
</g>
<g>
	<g>
		<path d="M401.3,71.955c-5.388-24.923-18.766-45.745-37.671-58.628c-18.341-12.501-39.931-16.305-62.433-11
			c-3.505,0.826-6.73,1.858-9.86,3.154c-0.004,0.002-0.007,0.003-0.01,0.004c-13.522,5.603-22.545,15.194-33.971,27.336
			c-0.449,0.477-0.9,0.956-1.354,1.439c-0.456-0.483-0.907-0.964-1.356-1.441c-14.152-15.041-24.376-25.907-43.839-30.493
			c-22.5-5.303-44.091-1.5-62.433,11c-18.905,12.885-32.284,33.705-37.671,58.628c-5.457,25.245-1.913,52.244,9.979,76.024
			c9.005,18.01,29.715,39.303,61.554,63.286c12.473,9.395,23.864,17.07,31.226,21.855c8.069,5.245,39.496,24.091,42.542,24.091
			c2.934,0,45.84-26.584,61.212-37.546c39.462-28.141,64.395-52.259,74.108-71.686C403.212,124.201,406.756,97.202,401.3,71.955z
			 M373.434,139.036c-17.271,34.543-96.42,84.51-117.39,96.723c-1.723-1.015-3.915-2.325-6.511-3.909
			c32.625-21.829,77.607-55.564,91.759-83.871c11.891-23.781,15.435-50.781,9.978-76.025c-1.167-5.398-6.488-8.829-11.887-7.662
			c-5.398,1.167-8.828,6.489-7.662,11.887c4.499,20.809,1.544,43.132-8.318,62.855c-9.922,19.843-43.616,49.347-92.802,81.35
			c-19.794-12.338-76.906-51.091-92.034-81.351c-9.862-19.722-12.816-42.045-8.318-62.854c4.299-19.889,14.736-36.343,29.386-46.328
			c13.579-9.254,29.686-12.042,46.582-8.06c13.607,3.206,20.8,10.852,33.86,24.731c2.735,2.907,5.563,5.912,8.748,9.192
			c1.883,1.939,4.471,3.034,7.175,3.034s5.292-1.095,7.175-3.034c3.184-3.28,6.011-6.285,8.746-9.19
			c10.543-11.205,17.506-18.606,27.061-22.565c0.001,0,0.003-0.001,0.004-0.002c2.126-0.881,4.35-1.59,6.797-2.167
			c16.894-3.982,33.002-1.195,46.582,8.06c14.651,9.984,25.087,26.437,29.386,46.328
			C386.249,96.992,383.295,119.314,373.434,139.036z"/>
	</g>
</g>
<g>
</g>
<g>
</g>
<g>
</g>
<g>
</g>
<g>
</g>
<g>
</g>
<g>
</g>
<g>
</g>
<g>
</g>
<g>
</g>
<g>
</g>
<g>
</g>
<g>
</g>
<g>
</g>
<g>
</g>
</svg>
